<?xml version="1.0" encoding="UTF-8"?>
<!DOCTYPE svg PUBLIC "-//W3C//DTD SVG 1.1//EN" "http://www.w3.org/Graphics/SVG/1.1/DTD/svg11.dtd">
<!-- Creator: CorelDRAW 2019 (64-Bit Evaluation Version) -->
<svg xmlns="http://www.w3.org/2000/svg" xml:space="preserve" width="4in" height="3in" version="1.1" style="shape-rendering:geometricPrecision; text-rendering:geometricPrecision; image-rendering:optimizeQuality; fill-rule:evenodd; clip-rule:evenodd"
viewBox="0 0 4000 3000"
 xmlns:xlink="http://www.w3.org/1999/xlink">
 <defs>
  <style type="text/css">
   <![CDATA[
    .fil6 {fill:#FEFEFE}
    .fil3 {fill:#44AF89}
    .fil4 {fill:#A1D890}
    .fil5 {fill:#F9AB3C}
    .fil1 {fill:#44AF89;fill-rule:nonzero}
    .fil2 {fill:#A9DF91;fill-rule:nonzero}
    .fil0 {fill:#F9AB3C;fill-rule:nonzero}
   ]]>
  </style>
 </defs>
 <g id="Layer_x0020_1">
  <metadata id="CorelCorpID_0Corel-Layer"/>
  <g id="_2210402762400">
   <path class="fil0" d="M675.05 1244.15l3.7 0.47 3.04 0.42c79.96,11.39 146.48,51.75 199.58,121.1 53.1,69.34 73.29,144.5 60.56,225.46 -13.72,28.21 -55.21,57.8 -124.48,88.74l-0.66 0.3 -48.92 -150.63 1.09 -1.99c0.99,-1.84 1.95,-3.72 2.89,-5.63 6.04,-8.74 9.74,-17.81 11.07,-27.22 3.52,-24.69 -6.57,-46.52 -30.26,-65.49 -6.14,-4.92 -12.55,-9.35 -19.24,-13.3 -1,-0.59 -2,-1.17 -3.01,-1.74l-55.36 -170.49z"/>
   <path class="fil1" d="M386.12 1489.02c10.21,-80.11 43.23,-143.49 99.06,-190.12 54.16,-45.24 117.44,-63.48 189.87,-54.76l55.36 170.49c-18.32,-10.3 -38.62,-17.03 -60.91,-20.2 -23.52,-3.35 -44.17,-1.49 -61.97,5.57 -36.61,12.78 -58.93,47.39 -66.97,103.82 -8.87,62.32 -0.55,96.49 24.98,102.53 101.18,9.8 168.61,-15.66 202.32,-76.36l48.92 150.63c-7.65,3.41 -15.63,6.84 -23.96,10.28 -104.62,43.88 -162.97,70.35 -175.06,79.43 -21.33,6.56 -32.75,15.13 -34.26,25.71 -2.68,18.81 7.87,37.41 31.65,55.79 23.77,18.38 45.65,29 65.64,31.84 38.8,5.53 97.33,-5.33 175.59,-32.57 19.99,19.64 27.98,43.57 23.96,71.79 -3.18,22.34 -13.17,41.91 -29.96,58.72 -16.79,16.8 -36.61,25.38 -59.44,25.72 -76.93,1.04 -125.39,0.13 -145.37,-2.71 -39.98,-5.69 -74.83,-17.85 -104.57,-36.48 -131.04,-82.25 -182.67,-241.95 -154.88,-479.12z"/>
   <path class="fil1" d="M1059.1 1442.96l1.13 -0.85c33.5,-25.01 82.15,-53.13 146.01,-84.35 81.35,-39.79 136.28,-70.96 164.78,-93.53 15.44,-13.06 26.13,-41.57 32.07,-85.51 5.94,-54.63 12.46,-89.07 19.59,-103.33 24.94,-42.75 56.41,-64.13 94.42,-64.13 8.31,0 16.62,1.19 24.94,3.56 41.57,17.81 58.78,40.97 51.66,69.48 -53.44,146.08 -80.17,309.38 -80.17,489.9l0.04 10.07 0 0.24 -158.41 -49.34 0.07 -0.55c4.59,-38.38 6.89,-68.54 6.89,-90.46 -57,0 -108.07,13.06 -153.2,39.19 -2.04,1.15 -4.04,2.32 -5.99,3.51l-0.98 0.59 -142.85 -44.49z"/>
   <path class="fil2" d="M959.51 1631.21c0,-65.31 25.54,-121.73 76.6,-169.23 6.61,-6.13 14.28,-12.46 22.99,-19.02l142.85 44.49c-49.62,30.37 -70.46,69.98 -62.51,118.81 5.94,36.82 24.64,70.07 56.12,99.76 31.47,29.69 65.91,44.54 103.32,44.54 13.96,0 27.91,-2.38 41.86,-7.13 0,-19 0,-39.2 0,-60.57 0,-26.13 3.56,-65.62 10.69,-118.46 1.38,-10.22 2.62,-19.97 3.74,-29.24l158.41 49.34c0.68,119.51 13.13,249.68 37.38,390.52 0,8.31 -8.31,17.52 -24.94,27.61 -16.63,10.09 -31.47,15.14 -44.54,15.14 -28.5,2.38 -52.85,-15.44 -73.04,-53.44 -20.19,-38.01 -35.63,-58.2 -46.32,-60.57 -10.69,0 -26.72,1.19 -48.1,3.56 -21.38,2.37 -36.81,3.57 -46.32,3.57 -43.94,0 -80.76,-10.1 -110.45,-30.29 -67.7,-45.13 -111.64,-77.79 -131.83,-97.98 -43.94,-43.94 -65.92,-94.42 -65.92,-151.43z"/>
   <path class="fil0" d="M2638.96 1276.71c17.81,0 48.7,-18.11 92.64,-54.33 43.94,-36.22 62.94,-61.46 57,-75.71 -4.74,-13.06 -15.14,-24.65 -31.17,-34.74 -16.03,-10.09 -31.17,-15.14 -45.43,-15.14 -7.13,0 -13.06,1.19 -17.81,3.56 -10.69,8.31 -24.05,32.07 -40.08,71.26 -16.03,39.19 -24.05,68.88 -24.05,89.07 0,10.69 2.97,16.04 8.91,16.04z"/>
   <path class="fil2" d="M2540.17 1760.96l-0.01 1.2c-0.19,23.28 2.76,55.04 8.85,95.29 7.72,51.07 10.39,88.48 8.02,112.23 -4.75,40.38 -33.26,60.57 -85.51,60.57 -27.32,0 -44.54,-7.13 -51.67,-21.38 -20.49,-48 -36.33,-101.76 -47.52,-161.28l-0.31 -1.66 168.15 -84.98z"/>
   <path class="fil2" d="M2741.38 1659.27l0.34 0.29c69.56,58.33 152.29,132.01 248.19,221.06 7.13,9.5 10.69,19 10.69,28.5 0,20.19 -11.28,37.41 -33.85,51.66 -16.63,21.37 -39.19,32.06 -67.7,32.06 -23.75,0 -41.57,-7.72 -53.44,-23.15 -25.28,-26.43 -113.91,-102.33 -265.89,-227.67l-0.8 -0.65 162.45 -82.1z"/>
   <path class="fil1" d="M2364.62 1328.37c2.37,-32.07 0,-77.79 -7.13,-137.17 -8.31,-66.5 -12.47,-112.23 -12.47,-137.17 0,-43.94 6.54,-80.76 19.3,-110.45 14.25,-35.63 49.58,-53.44 106,-53.44 13.07,0 25.24,1.78 37.11,5.34 15.14,15.44 22.86,28.5 22.86,39.19 0,47.5 -3.27,134.8 -9.5,261.87 -5.64,108.07 -7.13,194.77 -4.75,260.09 3.56,4.75 17.22,7.13 40.98,7.13 34.44,-26.13 68.29,-52.26 101.54,-78.39 40.38,-27.31 77.2,-40.97 110.45,-40.97 26.13,0 51.66,7.72 76.6,23.16 15.44,8.31 23.16,18.41 23.16,30.28 0,23.75 -15.44,43.35 -46.31,58.78 -10.69,7.13 -41.57,24.94 -92.64,53.44 -40.38,22.57 -71.26,44.54 -92.63,65.92 30.62,22.96 65.35,50.72 104.19,83.28l-162.45 82.1 -14.78 -12.18c-5.94,-4.75 -11.28,-7.13 -16.03,-7.13 -8.31,0 -10.69,7.72 -7.13,23.16 -0.47,4.71 -0.75,9.96 -0.82,15.74l-168.15 84.98c-13.24,-71.11 -19.87,-150.41 -19.87,-237.89 0,-60.57 4.16,-153.8 12.47,-279.69z"/>
   <path class="fil2" d="M3269.04 1837.26l0.89 0.98c4.26,4.55 9.3,9.08 15.15,13.61 23.77,18.38 45.66,29 65.64,31.84 38.8,5.53 97.33,-5.33 175.59,-32.57 19.99,19.64 27.98,43.57 23.96,71.79 -3.19,22.34 -13.17,41.91 -29.96,58.71 -16.79,16.8 -36.6,25.38 -59.44,25.72 -76.93,1.04 -125.39,0.13 -145.37,-2.71 -39.98,-5.69 -74.83,-17.85 -104.57,-36.48 -34.2,-21.46 -62.97,-48.22 -86.35,-80.23l-1.04 -1.4 145.48 -49.26z"/>
   <path class="fil1" d="M3056.06 1489.03c10.21,-80.12 43.23,-143.5 99.05,-190.13 55.83,-46.63 121.37,-64.59 196.61,-53.87 79.96,11.39 146.48,51.75 199.58,121.1 53.11,69.34 73.29,144.5 60.56,225.46 -15.27,31.41 -64.98,64.52 -149.11,99.32 -104.62,43.88 -162.97,70.35 -175.06,79.43 -21.33,6.56 -32.75,15.13 -34.26,25.71 -1.97,13.85 3.23,27.58 15.59,41.2l-145.48 49.26c-65.42,-90.63 -87.93,-223.12 -67.5,-397.49zm179.42 117.33c105.31,10.2 174.08,-17.79 206.3,-83.98 6.04,-8.74 9.74,-17.81 11.08,-27.22 3.52,-24.69 -6.57,-46.52 -30.26,-65.49 -23.69,-18.97 -51.41,-30.72 -83.15,-35.24 -23.52,-3.35 -44.17,-1.49 -61.98,5.57 -36.61,12.78 -58.93,47.39 -66.97,103.82 -8.87,62.32 -0.55,96.49 24.98,102.53z"/>
   <g>
    <path class="fil3" d="M1659.81 1056.17c14.7,14.31 53.17,23.54 73.16,35.94 10.06,43.48 -6.87,65.46 -5.64,79.72 3.74,43.54 -9.75,52.75 -9.2,85.88l41.88 -0.04c1.61,-26.35 -12.72,-52.32 -9.74,-78.57 4.52,-39.9 -7.64,6.88 -7.04,-81.19l62.42 25.95c0.66,112.51 -11.83,111.86 32.81,131.21 142.57,61.78 91.51,70.91 228.66,8.82 66.62,-30.16 47.56,-12.47 51.14,-114.24 -38.03,3.11 -125.17,65.33 -156.16,60.1 2.04,-24.38 22.86,-26.94 66.37,-45.58 37.5,-16.07 226.32,-98.52 235.92,-107.32 -22.62,-12.27 -291.73,-134.72 -299.96,-135.3 -17.72,-1.24 -263.23,118.3 -304.62,134.62z"/>
    <path class="fil4" d="M1808.13 1367.62c-4.14,26.76 4.67,30.91 24.82,39.76l98.3 44.12c19.7,8.48 35.2,12.18 27.01,40.72 -27.93,2.89 -122.1,-60.82 -149.98,-56.02 -4.11,27.2 4.22,31.19 24.92,40.11l95.42 42.99c22.9,9.72 34.02,8.57 31.61,40.23 -34.52,5.26 -120.51,-58.52 -151.98,-54.23 -3.5,21.1 -1.84,26.94 16.53,36.4 14.1,7.27 28.65,12.85 42.28,18.92 102.45,45.61 80.02,50.58 165.54,10.8 24.63,-11.45 67,-26.73 82.04,-39.52 3.72,-23.08 3.92,-36.94 -0.28,-59.78 -5.02,-27.28 4.15,-30.53 3.17,-58.29 -1.08,-31.13 -7.96,-22.83 -2.23,-53.5 4.96,-26.56 0.58,-36.87 -3.09,-60.29 -41.64,-0.02 -117.91,57.2 -151.15,56.67 -33.43,-0.54 -120.01,-63.24 -154.91,-56.55 0.33,34.75 10.08,30.35 69.07,56.8 21.05,9.44 74.68,29.34 83.49,43.01 8.8,13.66 1.26,28.83 -17.43,21.62 -26.5,-10.22 -111.23,-57.77 -133.14,-53.96z"/>
    <path class="fil5" d="M1979.94 1817.63l-1.44 -114.98c0,-41.02 10.43,-35.27 45.45,-50.72 20.04,-8.83 48.06,-26.59 71.93,-26.93 0.87,29.16 7.8,134.96 -7.52,148.28 -0.04,0.03 -95.27,45.41 -108.43,44.35zm-171.65 -230.99c-5.8,30.22 -9.77,189.78 7.34,204.11 11.33,9.49 135.69,62.66 149.15,62.18 10.19,-0.36 137.54,-55.06 146.42,-64.88 13.78,-15.23 7.21,-72.76 7.3,-97.59 0.09,-27.19 3.09,-79.16 -1.68,-103.33 -21.5,-3.67 -56.76,19.45 -76.88,28.02 -14.75,6.28 -66.67,31.27 -78.9,30.76 -30.94,-1.31 -125.76,-63.46 -152.74,-59.26z"/>
    <path class="fil3" d="M2115.39 1845.23c-35.95,-10.06 -116.05,55.61 -154.2,54.77 -34.3,-0.76 -115.75,-61.75 -152.3,-56 -5.8,22.16 18.11,52.06 29.39,70.69l78.56 132.84c41.51,71.11 43.85,80.36 69.87,34.94l59.25 -99.51c13.67,-23.12 25.91,-44.6 38.77,-66.81 11.28,-19.51 35.33,-46.09 30.66,-70.93z"/>
    <path class="fil6" d="M1979.94 1817.63c13.15,1.06 108.39,-44.32 108.43,-44.35 15.31,-13.32 8.38,-119.12 7.52,-148.28 -23.87,0.35 -51.9,18.1 -71.93,26.93 -35.02,15.45 -45.45,9.7 -45.45,50.72l1.44 114.98z"/>
   </g>
  </g>
 </g>
</svg>
